<?xml version="1.0" encoding="UTF-8" standalone="no"?>
<svg
   xmlns:dc="http://purl.org/dc/elements/1.1/"
   xmlns:cc="http://creativecommons.org/ns#"
   xmlns:rdf="http://www.w3.org/1999/02/22-rdf-syntax-ns#"
   xmlns:svg="http://www.w3.org/2000/svg"
   xmlns="http://www.w3.org/2000/svg"
   xmlns:sodipodi="http://sodipodi.sourceforge.net/DTD/sodipodi-0.dtd"
   xmlns:inkscape="http://www.inkscape.org/namespaces/inkscape"
   width="210mm"
   height="297mm"
   viewBox="0 0 210 297"
   version="1.1"
   id="svg8"
   inkscape:version="1.0.1 (3bc2e813f5, 2020-09-07)"
   sodipodi:docname="drawing.svg">
  <defs
     id="defs2" />
  <sodipodi:namedview
     id="base"
     pagecolor="#ffffff"
     bordercolor="#666666"
     borderopacity="1.0"
     inkscape:pageopacity="0.0"
     inkscape:pageshadow="2"
     inkscape:zoom="0.98994949"
     inkscape:cx="413.6122"
     inkscape:cy="517.08283"
     inkscape:document-units="mm"
     inkscape:current-layer="layer1"
     inkscape:document-rotation="0"
     showgrid="false"
     inkscape:window-width="1431"
     inkscape:window-height="1030"
     inkscape:window-x="160"
     inkscape:window-y="0"
     inkscape:window-maximized="0" />
  <metadata
     id="metadata5">
    <rdf:RDF>
      <cc:Work
         rdf:about="">
        <dc:format>image/svg+xml</dc:format>
        <dc:type
           rdf:resource="http://purl.org/dc/dcmitype/StillImage" />
        <dc:title></dc:title>
      </cc:Work>
    </rdf:RDF>
  </metadata>
  <g
     inkscape:label="Layer 1"
     inkscape:groupmode="layer"
     id="layer1">
    <path
       style="stroke:#ab8b00;stroke-width:0.264583"
       id="path839"
       d="m 46.205878,76.459965 c 3.581188,-1.797476 7.124332,-3.672837 10.743564,-5.392422 8.344919,-3.964877 18.642981,-8.426487 27.194343,-11.959037 5.211173,-2.152721 16.055705,-6.510396 21.840045,-8.352245 2.29712,-0.731448 4.66847,-1.205185 7.00271,-1.807779 1.30341,0.0095 2.84901,-0.728265 3.91025,0.02854 0.67468,0.481134 -0.21791,1.648293 -0.43901,2.446911 -0.86273,3.116133 -1.67217,6.257515 -2.80891,9.28446 -8.29472,22.087488 -19.63809,42.851467 -30.574324,63.689327 -11.092225,20.61505 -22.916377,40.81891 -34.854107,60.95089 -6.004616,10.12628 -12.027887,20.22229 -18.324936,30.16867 5.930919,-3.04638 -8.548463,9.31159 -5.466032,8.18673 7.824835,-2.85547 15.405473,-6.45821 22.614903,-10.63025 2.78902,-1.61398 4.683744,-4.42854 7.097072,-6.56382 7.667035,-6.78368 13.600279,-11.54851 21.546518,-18.09467 8.847487,-7.17744 17.732833,-14.3165 26.872066,-21.12181 4.27983,-3.18687 8.58626,-6.28753 13.13504,-9.07313 -29.956262,19.36891 -17.738945,8.59912 -10.80119,7.27893 0.72508,-0.15578 1.29647,-0.32879 1.90855,-0.75447 0,0 17.5436,-13.92605 17.5436,-13.92605 v 0 c -0.77887,0.20485 -1.10822,0.71973 -1.8343,0.98124 -0.84097,0.41181 -1.72064,0.48928 -2.60085,0.82825 -8.37275,3.22427 -15.93107,8.89802 -23.525414,13.13447 -12.006101,8.59372 -22.658128,18.94993 -34.223063,28.10079 -6.571556,5.38253 -16.496064,13.59153 -23.194226,18.74992 -3.48901,2.68695 -14.4147,5.60839 -10.625024,7.85144 11.245752,6.65618 13.856954,-2.63198 16.26031,-7.96953 0.675992,-1.50129 1.379146,-2.9902 2.068719,-4.4853 4.289994,-9.24588 8.457295,-18.54638 12.865155,-27.73775 9.51842,-19.84802 19.578545,-39.43102 30.045628,-58.79532 4.58819,-8.3076 9.076044,-16.67142 13.764565,-24.922813 4.56795,-8.039187 9.32069,-15.971983 14.00276,-23.945246 3.65962,-6.232097 7.48049,-12.370917 11.02224,-18.670746 2.25117,-4.004226 5.12927,-7.802192 6.35041,-12.230555 0.43706,-1.584966 -0.25075,-3.855413 -1.70111,-4.629735 -1.6593,-0.885875 -3.72994,0.48968 -5.59492,0.73452 -2.79851,0.906727 -5.63222,1.711301 -8.39555,2.720179 -5.21393,1.903571 -18.75375,7.576807 -23.415016,9.519404 -4.44245,1.851406 -8.878898,3.717184 -13.318347,5.575776 -4.063172,1.657511 -8.134088,3.296166 -12.189516,4.972534 -2.826353,1.16831 -5.637006,2.374249 -8.455509,3.561376 0,0 -15.447094,12.29832 -15.447094,12.298321 z" />
    <path
       style="stroke:#ab8b00;stroke-width:0.264583"
       id="path841"
       d="m 130.27868,122.43192 c -11.67805,5.81632 -23.4817,11.4197 -34.231862,18.92641 -0.287046,0.47462 -0.782336,0.87482 -0.861137,1.42387 -0.08036,0.55991 0.09679,1.18031 0.420839,1.64394 1.936903,2.77121 6.2501,1.43016 8.88998,0.89596 9.36769,-2.4551 16.84043,-8.42901 25.10507,-13.77584 1.20571,-0.78004 4.12345,-5.22766 5.01952,-6.60852 4.43992,-9.51247 3.88779,-5.51783 -19.01166,6.73099 -0.28982,0.15503 0.0352,0.65715 0.026,0.9857 -0.0117,0.42062 -0.059,0.83948 -0.0886,1.25922 -0.17557,2.07222 -0.56721,4.4301 0.34212,6.41055 0.71379,1.55459 1.70354,2.37477 2.8635,3.58187 2.34153,1.88667 1.15836,1.02037 3.53836,2.61408 0,0 18.11763,-11.70205 18.11763,-11.70205 v 0 c -2.26488,-1.24579 -1.16612,-0.54736 -3.29118,-2.10327 -0.42954,-0.45711 -0.91252,-0.86933 -1.28862,-1.37132 -1.57041,-2.09603 -0.94735,-4.72575 -0.543,-7.09278 0.10501,-0.41416 0.17211,-0.83983 0.31502,-1.24249 0.10003,-0.28188 0.68414,-0.91653 0.40932,-0.7985 -29.02514,12.46593 -16.7962,2.48524 -20.97722,11.31482 -1.12231,1.68634 -1.45693,2.33514 -2.93871,3.87248 -0.67712,0.7025 -3.03173,2.41287 -2.15902,1.97653 5.45337,-2.72661 10.66687,-5.90878 15.98554,-8.88961 0.71637,-0.40149 -1.42305,0.82828 -2.17807,1.15126 -0.73705,0.31529 -1.52182,0.50465 -2.28273,0.75697 -1.92972,0.51658 -2.42652,0.70908 -4.35061,1.00533 -0.48795,0.0751 -1.00072,0.008 -1.4734,0.15078 -0.66766,0.20134 -0.32354,0.58016 -0.25371,0.54125 0.24999,-0.13929 0.43026,-0.37745 0.64538,-0.56618 6.29413,-4.11207 5.84461,-3.77026 -13.89822,7.79427 -0.94635,0.55433 1.95093,-1.00291 2.93525,-1.48663 1.39189,-0.684 4.52603,-2.15541 5.9826,-2.81556 0.73667,-0.33388 1.48075,-0.65118 2.22112,-0.97676 0,0 17.01047,-13.60677 17.01047,-13.60677 z" />
    <path
       style="stroke:#ab8b00;stroke-width:0.264583"
       id="path845"
       d="m 182.17255,107.55073 c -4.84074,0.84249 -9.59872,1.92396 -14.21066,3.63071 -8.4657,3.70897 -16.44567,9.10921 -24.02697,14.00356 -0.65241,0.42119 -1.05785,1.14663 -1.48426,1.79564 -0.8989,1.36814 -1.48313,3.0335 -2.08869,4.53696 -0.20695,0.85044 -0.50735,1.68346 -0.62084,2.55133 -0.57054,4.363 0.47728,9.84463 3.23611,13.34931 0.78944,1.00287 1.83944,1.76984 2.75916,2.65475 4.25101,2.92508 9.24519,4.50884 14.37941,3.27565 0.61798,-0.14844 1.20354,-0.40888 1.80531,-0.61332 8.27718,-4.59383 17.48682,-6.14919 21.33171,-14.19485 0,0 -20.1432,8.91348 -20.1432,8.91348 v 0 c -4.43515,5.50442 -17.3015,9.68321 15.6964,-8.19159 -0.5653,0.3616 -1.08927,0.79787 -1.69589,1.0848 -3.31629,1.56857 -7.40058,1.62416 -10.80882,0.33037 -1.02756,-0.39007 -1.95692,-1.00131 -2.93539,-1.50196 -0.80617,-0.71236 -1.73667,-1.30494 -2.41852,-2.13708 -3.34085,-4.07719 -2.97541,-9.80085 -1.1642,-14.4003 0.91841,-1.81288 1.05693,-2.37676 2.4324,-3.91566 0.494,-0.55269 2.28493,-1.85881 1.6285,-1.51442 -30.60321,16.05573 -19.11498,10.97992 -12.63589,7.13133 4.17938,-1.73898 8.49462,-3.38489 13.09137,-3.4117 0,0 17.87296,-13.37701 17.87296,-13.37701 z" />
    <circle
       id="path847"
       style="fill:#000000;stroke:#ab8b00;stroke-width:0.264583"
       cx="123.97619"
       cy="55.184521"
       r="0.19981238" />
    <circle
       id="path849"
       style="fill:#000000;stroke:#ab8b00;stroke-width:0.264583"
       cx="301.625"
       cy="50.648811"
       r="0.19981238" />
    <circle
       id="path851"
       style="fill:#000000;stroke:#ab8b00;stroke-width:0.264583"
       cx="224.51785"
       cy="381.75592"
       r="0.19981238" />
    <circle
       id="path853"
       style="fill:#000000;stroke:#ab8b00;stroke-width:0.264583"
       cx="145.6619"
       cy="68.153725"
       r="0.070644349" />
  </g>
</svg>
